PathFileType	4	(X/Y/Z)	Patient4_TMGait_0pt8_01_right_18.trc.trc
DataRate	CameraRate	NumFrames	NumMarkers	Units	OrigDataRate	OrigDataStartFrame	OrigNumFrames
87.500000000000	87.500000000000	4	33	mm	87.500000000000	71	       141
Frame#	Time	Sacral			L.Shoulder			Chest			R.Shoulder			Neck			R.ASIS			L.ASIS			R.Thigh.Superior			R.Thigh.Lateral			R.Thigh.Inferior			R.Patella			L.Thigh.Superior			L.Thigh.Lateral			L.Thigh.Inferior			L.Patella			L.Shank.Superior			L.Shank.Lateral			L.Shank.Inferior			R.Shank.Superior			R.Shank.Lateral			R.Shank.Inferior			R.Heel			R.Midfoot.Superior			R.Midfoot.Lateral			R.Toe			L.Heel			L.Midfoot.Lateral			L.Midfoot.Superior			L.Toe			L.Elbow			L.Wrist			R.Elbow			R.Wrist			
		X1	Y1	Z1	X2	Y2	Z2	X3	Y3	Z3	X4	Y4	Z4	X5	Y5	Z5	X6	Y6	Z6	X7	Y7	Z7	X8	Y8	Z8	X9	Y9	Z9	X10	Y10	Z10	X11	Y11	Z11	X12	Y12	Z12	X13	Y13	Z13	X14	Y14	Z14	X15	Y15	Z15	X16	Y16	Z16	X17	Y17	Z17	X18	Y18	Z18	X19	Y19	Z19	X20	Y20	Z20	X21	Y21	Z21	X22	Y22	Z22	X23	Y23	Z23	X24	Y24	Z24	X25	Y25	Z25	X26	Y26	Z26	X27	Y27	Z27	X28	Y28	Z28	X29	Y29	Z29	X30	Y30	Z30	X31	Y31	Z31	X32	Y32	Z32	X33	Y33	Z33	

71	20.780000000000	915.715840748792	998.756301060130	511.227299276263	1057.532898433552	1420.213374688755	304.988856712415	1186.631160849172	1354.987834061953	447.598922731142	1131.990294630461	1433.191481089573	630.069068814101	1073.802748936203	1481.578690774187	459.090829476911	1146.680144718107	927.938015443966	605.500440816809	1110.613396183839	945.386119767154	331.217567544462	1130.275512927917	712.465514739168	582.508919385185	1019.126785272688	624.431984524150	644.892447977726	1073.640911734049	555.354486801925	564.600137499521	1049.244725335786	470.232353674461	568.695126364559	1190.335403852760	768.161255576473	368.099303398834	1145.016909588212	636.551284430019	289.888976781554	1250.664845026000	582.309071012501	351.018245305228	1279.209946830329	519.253687329833	348.269818307936	1267.387534875372	446.458109283514	337.952673797582	1209.525357287486	311.445471202581	291.470506619424	1305.077578421565	220.158480975008	345.817647627377	1005.371488966146	390.108071544114	575.144675940331	916.472924127797	299.998888846551	635.653694347540	940.056381490424	199.898651421885	571.466670740114	785.008661523275	46.465333312902	534.721485641684	954.589943863561	96.295383715325	580.160957410758	863.152907380895	37.991729442223	614.201553834514	1071.631064988001	39.975682469986	617.240744679822	1235.725225074122	39.500579704794	388.528207468234	1308.564784388280	45.864398486595	307.528001658180	1375.372377973264	125.881010387601	326.937676466060	1510.034089159986	101.590243271956	299.974553040985	887.218820907623	1111.103381354296	232.538781293727	805.984500603534	866.165836014500	253.231759271530	1338.810224568358	1175.132915093554	736.548402040458	1541.227244313376	1301.811026251794	656.001361360735	
72	20.791428571429	916.484691167370	997.187717230879	508.153072258767	1058.562677197343	1418.802364765385	302.840220314821	1187.009317408729	1353.895609684706	446.179011205324	1131.039403749242	1432.143861426506	628.152031063930	1073.798353175739	1480.146014819806	457.064949912183	1146.981726485274	926.423548165040	604.165658144822	1112.641635534207	943.852293233698	329.780203738193	1130.182547718283	710.696783430334	581.276632853030	1018.410561598384	623.052463768036	643.238031774130	1073.055630468873	553.474938421663	563.319096300489	1047.858551938732	467.692429086732	567.285766316936	1192.171352839761	765.844974375621	366.982443671707	1144.943203897454	634.016962685979	290.265679223619	1250.545419451140	579.747990525380	351.207005627296	1277.622904782970	515.608303057317	349.347298809251	1265.308804073286	442.710703803026	338.985170245595	1205.663488154586	308.262503677314	293.393807970846	1299.920213794209	216.085197728727	348.185999820478	1002.373410815844	388.180754251402	573.809986246686	911.809917826382	299.949588058423	634.873617163667	933.315669069300	199.265309763211	570.983885786891	775.920841718681	47.563019852698	534.979963432426	945.750284944649	96.395998203583	580.193276705050	854.108016993577	38.450607694643	614.335436037249	1062.543240982402	39.603632335381	617.415404796641	1227.010901958674	38.390356231894	391.429726711543	1299.486919367811	43.186776654091	309.949637954344	1368.872190078244	120.370821888144	329.948056345940	1502.637355560858	91.730480651391	301.951126027325	885.531662371187	1111.865122248555	231.744557910394	799.011934167848	868.937122363038	253.402798597293	1340.365009406809	1176.539885873291	733.209796207312	1537.368298289326	1310.056398689615	651.879487621712	
73	20.802857142857	917.225167567771	995.657863605216	504.961579255287	1059.723972473005	1417.406979628111	300.532727716389	1187.445960152026	1352.877994548551	444.700187419289	1130.034962625654	1431.165252220184	626.180749099190	1073.862489623270	1478.812236092571	454.846942646633	1147.327829623977	925.013908791403	602.717693600201	1114.689063909564	942.495773921550	328.308733279883	1130.434998103603	709.044451349396	579.970504921693	1018.133493880846	621.667295720561	641.437265864218	1073.071693035090	551.604448198227	561.964033449303	1047.132564634985	465.014346635646	565.861930870138	1194.080330879336	763.748970874557	365.759440717133	1145.165628679097	631.908902973886	290.316311823295	1250.684888429385	577.579887413509	351.267089725991	1276.258819509445	512.329971867413	350.253381383182	1263.473406255271	439.308852767388	339.782719460442	1202.108641118694	305.523019521356	294.651264214892	1294.704251870116	212.288441250184	350.145664092664	999.831681216555	386.242377362790	572.447149148976	907.471197231420	300.086547137139	634.043557719211	926.807274530789	198.791768386898	570.514535350803	766.884715356370	49.086079208732	535.279012858316	937.079110206231	96.590067378391	580.305349895668	845.109800649877	39.109862131168	614.466559019796	1053.497217268150	39.226368953670	617.590194514656	1217.678869949514	37.677937796129	393.612737084353	1289.986085550322	40.851467091565	311.807309101710	1362.039273060010	115.067568820563	332.629582945638	1494.890549385418	81.848647518119	303.913707272543	884.810620888783	1112.040433180304	230.656642115201	793.684616451105	870.990740330716	253.102748047358	1341.084830817077	1177.231727628828	730.166689904426	1532.919444259358	1316.766592807805	648.121380393342	
74	20.814285714286	917.901682832590	994.248638986280	501.712198756211	1060.994839512835	1416.100291837515	298.103100882437	1187.937488190046	1351.985665927566	443.169343708662	1129.027535036118	1430.312675880573	624.177837773952	1074.018895544656	1477.648974413294	452.464469041896	1147.683277007215	923.771767143272	601.142728752644	1116.672107437309	941.402315753817	326.790350099068	1130.993210539670	707.580730582864	578.554963841324	1018.309919322734	620.328949696319	639.500495471612	1073.703405816751	549.813358346851	560.530015716175	1047.118256682359	462.254023110676	564.484457485116	1195.995273044567	762.005592072877	364.438617599420	1145.727205969106	630.358155275130	289.959130519465	1251.078017836810	575.906202913469	351.135381911766	1275.177888384681	509.591857909136	350.886307798388	1261.959983205435	436.411769662254	340.283987797546	1199.031425721520	303.367297579516	295.143923529783	1289.608078979964	208.961758283522	351.621784533467	997.779628612645	384.365445100128	571.116932333941	903.486257455502	300.497681490486	633.183567454468	920.582665409363	198.562857023213	570.093476001558	757.939950794831	51.164287984701	535.616983480910	928.632933935455	96.888438800939	580.506157243249	836.179525426294	40.037473935467	614.588670907208	1044.494897451117	38.866352737873	617.752031363715	1208.123758945202	37.347233329309	395.061548463045	1280.438522967114	38.961300840077	313.082007277870	1355.048041394350	110.290309261893	334.868212820866	1487.014011282715	72.629081241843	305.758075481810	885.048845118953	1111.652062073652	229.246035870504	790.087646352160	872.258690358010	252.285832857754	1340.957041031981	1177.163178988488	727.477206621166	1527.937760287393	1321.933479618696	644.744322473506	
